<svg xmlns="http://www.w3.org/2000/svg" width="299.999" height="64.415" viewBox="0 0 75 16.104"><path d="M13.713 14.205c-1.266-1.266-1.899-2.817-1.899-4.653 0-1.836.633-3.387 1.9-4.653 1.265-1.266 2.81-1.9 4.634-1.9 1.824 0 3.372.634 4.644 1.9C24.264 6.165 24.9 7.716 24.9 9.552c0 1.836-.636 3.39-1.908 4.662-1.272 1.26-2.82 1.89-4.644 1.89-1.824 0-3.37-.633-4.635-1.9Zm54.5 1.647v-4.914l-4.301-7.686h2.808l2.736 5.256 2.736-5.256H75l-4.32 7.686v4.914h-2.466Zm-11.74 0v-12.6h2.483v10.224h4.806v2.376h-7.29Zm-5.587 0-4.5-5.904v5.904h-2.484v-12.6h2.484v5.562l4.32-5.562h2.862l-4.662 6.12 4.842 6.48h-2.862ZM0 15.852v-12.6h4.968c1.08 0 1.989.333 2.727.999.738.666 1.107 1.515 1.107 2.547 0 1.044-.396 1.884-1.188 2.52 1.104.636 1.656 1.596 1.656 2.88 0 1.068-.378 1.944-1.134 2.628-.756.684-1.686 1.026-2.79 1.026H0Zm29.469-4.647c-1.266-1.266-1.9-2.817-1.9-4.653 0-1.836.634-3.387 1.9-4.653C30.735.633 32.28 0 34.104 0c1.824 0 3.372.633 4.644 1.899 1.272 1.266 1.908 2.817 1.908 4.653 0 1.836-.636 3.39-1.908 4.662-1.272 1.26-2.82 1.89-4.644 1.89-1.824 0-3.369-.633-4.635-1.899Z" fill="#fff" fill-rule="evenodd" data-name="BOOKLY"/></svg>